M48
; DRILL file {KiCad (6.0.5)} date Sun May 29 11:52:22 2022
; FORMAT={-:-/ absolute / metric / decimal}
; #@! TF.CreationDate,2022-05-29T11:52:22+01:00
; #@! TF.GenerationSoftware,Kicad,Pcbnew,(6.0.5)
; #@! TF.FileFunction,MixedPlating,1,2
FMAT,2
METRIC
; #@! TA.AperFunction,Plated,PTH,ViaDrill
T1C0.400
; #@! TA.AperFunction,Plated,PTH,ComponentDrill
T2C0.800
; #@! TA.AperFunction,Plated,PTH,ComponentDrill
T3C0.900
; #@! TA.AperFunction,Plated,PTH,ComponentDrill
T4C1.000
; #@! TA.AperFunction,Plated,PTH,ComponentDrill
T5C1.400
; #@! TA.AperFunction,Plated,PTH,ComponentDrill
T6C1.600
; #@! TA.AperFunction,NonPlated,NPTH,ComponentDrill
T7C0.900
; #@! TA.AperFunction,NonPlated,NPTH,ComponentDrill
T8C2.700
; #@! TA.AperFunction,NonPlated,NPTH,ComponentDrill
T9C3.250
%
G90
G05
T1
X101.573Y-107.613
X106.145Y-76.879
X106.145Y-87.801
X106.653Y-89.579
X106.907Y-69.254
X106.907Y-84.499
X107.669Y-83.483
X107.669Y-87.039
X107.674Y-66.714
X108.685Y-74.339
X109.701Y-73.069
X110.717Y-103.549
X111.733Y-103.549
X112.749Y-101.009
X113.749Y-101.009
X114.473Y-86.044
X114.527Y-80.689
X115.035Y-99.739
X115.797Y-104.819
X116.559Y-88.309
X116.559Y-97.199
X116.596Y-90.849
X117.321Y-84.499
X118.083Y-83.483
X120.877Y-94.659
X120.877Y-97.199
X121.893Y-104.819
X122.909Y-101.517
X123.671Y-110.661
X123.925Y-103.549
X124.941Y-102.533
X125.449Y-87.801
X126.211Y-79.419
X126.719Y-87.801
X128.751Y-97.199
X129.249Y-89.828
X129.249Y-92.876
X129.305Y-96.367
X130.024Y-95.672
X132.678Y-78.144
X132.933Y-60.11
X133.821Y-89.828
X133.821Y-92.876
X134.847Y-86.023
X136.625Y-96.399
X137.641Y-86.023
X141.197Y-97.453
X142.467Y-67.735
X142.467Y-70.275
X145.261Y-67.481
X145.261Y-70.529
X147.547Y-110.661
X148.055Y-82.721
X149.071Y-101.263
X150.341Y-101.263
X150.595Y-87.039
X151.244Y-85.134
X152.119Y-82.975
X152.373Y-89.579
X154.087Y-85.134
X154.151Y-92.373
X154.913Y-89.579
X154.913Y-98.469
X157.961Y-95.421
X158.215Y-89.579
T2
X104.621Y-60.369
X104.621Y-62.909
X104.621Y-65.449
X104.621Y-67.989
X104.621Y-70.529
X104.621Y-73.069
X104.621Y-75.609
X104.621Y-78.149
X104.621Y-80.689
X104.621Y-83.229
X104.621Y-85.769
X104.621Y-88.309
X104.621Y-90.849
X104.621Y-93.389
X104.621Y-95.929
X104.621Y-98.469
X104.621Y-101.009
X104.621Y-103.549
X104.621Y-106.089
X104.621Y-108.629
X119.861Y-60.369
X119.861Y-62.909
X119.861Y-65.449
X119.861Y-67.989
X119.861Y-70.529
X119.861Y-73.069
X119.861Y-75.609
X119.861Y-78.149
X119.861Y-80.689
X119.861Y-83.229
X119.861Y-85.769
X119.861Y-88.309
X119.861Y-90.849
X119.861Y-93.389
X119.861Y-95.929
X119.861Y-98.469
X119.861Y-101.009
X119.861Y-103.549
X119.861Y-106.089
X119.861Y-108.629
T3
X157.159Y-68.554
X157.159Y-71.094
X157.159Y-73.634
X157.159Y-76.174
X159.699Y-72.364
X159.699Y-74.904
X159.699Y-77.444
T4
X93.308Y-76.874
X93.308Y-79.414
X93.308Y-81.954
X93.308Y-84.494
X93.308Y-87.034
X93.308Y-89.574
X93.308Y-92.114
X93.308Y-94.654
X93.308Y-97.194
X93.308Y-99.734
X95.849Y-76.874
X95.849Y-79.414
X95.849Y-81.954
X95.849Y-84.494
X95.849Y-87.034
X95.849Y-89.574
X95.849Y-92.114
X95.849Y-94.654
X95.849Y-97.194
X95.849Y-99.734
X100.557Y-64.174
X100.557Y-66.714
X100.557Y-69.254
X123.925Y-60.369
X123.925Y-62.909
X123.925Y-65.449
X123.925Y-67.989
X123.925Y-70.529
X123.925Y-73.069
X123.925Y-75.609
X123.925Y-78.149
X123.925Y-80.689
X123.925Y-83.229
X130.275Y-104.555
X132.815Y-104.555
X135.355Y-104.555
X137.895Y-104.555
X140.435Y-104.555
X142.975Y-104.555
X144.499Y-85.515
X144.499Y-88.055
X144.499Y-90.595
X144.499Y-93.135
X144.499Y-95.675
X145.515Y-104.555
X147.039Y-85.515
X147.039Y-88.055
X147.039Y-90.595
X147.039Y-93.135
X147.039Y-95.675
X148.055Y-104.555
X150.595Y-104.555
X153.135Y-104.555
X155.675Y-61.375
X155.675Y-104.555
X158.215Y-61.375
X158.215Y-104.555
X160.755Y-61.375
X160.755Y-104.555
X162.236Y-69.746
X162.236Y-72.286
X162.236Y-77.366
X162.236Y-79.906
X163.295Y-61.375
X163.295Y-104.555
X165.835Y-61.375
X165.835Y-104.555
X168.375Y-104.555
X170.915Y-104.555
T5
X159.736Y-69.826
X159.736Y-79.826
X162.236Y-67.326
X162.236Y-74.826
X162.236Y-82.326
X172.236Y-69.826
X172.236Y-72.326
X172.236Y-77.326
X172.236Y-79.826
T6
X169.099Y-65.229
X169.099Y-80.769
T7
X170.175Y-90.255
X170.175Y-98.255
T8
X93.415Y-59.555
X93.415Y-108.555
X151.415Y-59.555
X151.415Y-108.555
T9
X166.049Y-67.284
X166.049Y-78.714
T0
M30
