G04 #@! TF.GenerationSoftware,KiCad,Pcbnew,(6.0.5)*
G04 #@! TF.CreationDate,2022-05-29T11:52:24+01:00*
G04 #@! TF.ProjectId,Econet_AtoMMC,45636f6e-6574-45f4-9174-6f4d4d432e6b,01*
G04 #@! TF.SameCoordinates,Original*
G04 #@! TF.FileFunction,Soldermask,Top*
G04 #@! TF.FilePolarity,Negative*
%FSLAX46Y46*%
G04 Gerber Fmt 4.6, Leading zero omitted, Abs format (unit mm)*
G04 Created by KiCad (PCBNEW (6.0.5)) date 2022-05-29 11:52:24*
%MOMM*%
%LPD*%
G01*
G04 APERTURE LIST*
G04 Aperture macros list*
%AMRoundRect*
0 Rectangle with rounded corners*
0 $1 Rounding radius*
0 $2 $3 $4 $5 $6 $7 $8 $9 X,Y pos of 4 corners*
0 Add a 4 corners polygon primitive as box body*
4,1,4,$2,$3,$4,$5,$6,$7,$8,$9,$2,$3,0*
0 Add four circle primitives for the rounded corners*
1,1,$1+$1,$2,$3*
1,1,$1+$1,$4,$5*
1,1,$1+$1,$6,$7*
1,1,$1+$1,$8,$9*
0 Add four rect primitives between the rounded corners*
20,1,$1+$1,$2,$3,$4,$5,0*
20,1,$1+$1,$4,$5,$6,$7,0*
20,1,$1+$1,$6,$7,$8,$9,0*
20,1,$1+$1,$8,$9,$2,$3,0*%
G04 Aperture macros list end*
%ADD10R,1.700000X1.700000*%
%ADD11O,1.700000X1.700000*%
%ADD12RoundRect,0.200000X-0.200000X-0.275000X0.200000X-0.275000X0.200000X0.275000X-0.200000X0.275000X0*%
%ADD13R,0.900000X0.400000*%
%ADD14R,1.500000X1.100000*%
%ADD15C,3.250000*%
%ADD16C,1.500000*%
%ADD17C,2.500000*%
%ADD18C,3.000000*%
%ADD19R,1.500000X1.500000*%
%ADD20C,0.900000*%
%ADD21R,1.600000X0.700000*%
%ADD22R,1.600000X1.400000*%
%ADD23R,2.200000X1.400000*%
%ADD24R,1.400000X1.800000*%
%ADD25RoundRect,0.218750X-0.218750X-0.256250X0.218750X-0.256250X0.218750X0.256250X-0.218750X0.256250X0*%
%ADD26RoundRect,0.225000X0.225000X0.250000X-0.225000X0.250000X-0.225000X-0.250000X0.225000X-0.250000X0*%
%ADD27RoundRect,0.225000X-0.225000X-0.250000X0.225000X-0.250000X0.225000X0.250000X-0.225000X0.250000X0*%
%ADD28RoundRect,0.225000X-0.250000X0.225000X-0.250000X-0.225000X0.250000X-0.225000X0.250000X0.225000X0*%
%ADD29RoundRect,0.250000X0.600000X0.600000X-0.600000X0.600000X-0.600000X-0.600000X0.600000X-0.600000X0*%
%ADD30C,1.700000*%
%ADD31RoundRect,0.200000X0.200000X0.275000X-0.200000X0.275000X-0.200000X-0.275000X0.200000X-0.275000X0*%
%ADD32RoundRect,0.100000X-0.637500X-0.100000X0.637500X-0.100000X0.637500X0.100000X-0.637500X0.100000X0*%
%ADD33RoundRect,0.250000X-0.250000X-0.475000X0.250000X-0.475000X0.250000X0.475000X-0.250000X0.475000X0*%
%ADD34RoundRect,0.250000X0.475000X-0.250000X0.475000X0.250000X-0.475000X0.250000X-0.475000X-0.250000X0*%
%ADD35R,1.500000X0.550000*%
%ADD36R,0.550000X1.500000*%
%ADD37R,1.600000X1.600000*%
%ADD38O,1.600000X1.600000*%
%ADD39R,1.200000X1.400000*%
%ADD40R,2.000000X1.500000*%
%ADD41R,2.000000X3.800000*%
%ADD42C,6.000000*%
G04 APERTURE END LIST*
D10*
X155675000Y-61375000D03*
D11*
X158215000Y-61375000D03*
X160755000Y-61375000D03*
X163295000Y-61375000D03*
X165835000Y-61375000D03*
D10*
X130275000Y-104555000D03*
D11*
X132815000Y-104555000D03*
X135355000Y-104555000D03*
X137895000Y-104555000D03*
X140435000Y-104555000D03*
X142975000Y-104555000D03*
X145515000Y-104555000D03*
X148055000Y-104555000D03*
X150595000Y-104555000D03*
X153135000Y-104555000D03*
X155675000Y-104555000D03*
X158215000Y-104555000D03*
X160755000Y-104555000D03*
X163295000Y-104555000D03*
X165835000Y-104555000D03*
X168375000Y-104555000D03*
X170915000Y-104555000D03*
D12*
X150532000Y-84245000D03*
X152182000Y-84245000D03*
D13*
X142545000Y-72885000D03*
X142545000Y-73685000D03*
X142545000Y-74485000D03*
X142545000Y-75285000D03*
X144245000Y-75285000D03*
X144245000Y-74485000D03*
X144245000Y-73685000D03*
X144245000Y-72885000D03*
X142545000Y-62725000D03*
X142545000Y-63525000D03*
X142545000Y-64325000D03*
X142545000Y-65125000D03*
X144245000Y-65125000D03*
X144245000Y-64325000D03*
X144245000Y-63525000D03*
X144245000Y-62725000D03*
D14*
X130886000Y-60237000D03*
X130886000Y-62777000D03*
X130886000Y-65317000D03*
X130886000Y-67857000D03*
X130886000Y-70397000D03*
X130886000Y-72937000D03*
X130886000Y-75477000D03*
X130886000Y-78017000D03*
X139786000Y-78017000D03*
X139786000Y-75477000D03*
X139786000Y-72937000D03*
X139786000Y-70397000D03*
X139786000Y-67857000D03*
X139786000Y-65317000D03*
X139786000Y-62777000D03*
X139786000Y-60237000D03*
D15*
X166048900Y-78714020D03*
X166048900Y-67284020D03*
D10*
X162236100Y-69746220D03*
D16*
X157158900Y-68554020D03*
D17*
X162236100Y-67326220D03*
D16*
X157158900Y-73634020D03*
X159698900Y-74904020D03*
X157158900Y-71094020D03*
D18*
X169098900Y-65229020D03*
X169098900Y-80769020D03*
D17*
X172236100Y-69826220D03*
D16*
X159698900Y-72364020D03*
D17*
X172236100Y-77326220D03*
X172236100Y-72326220D03*
X162236100Y-74826220D03*
X172236100Y-79826220D03*
D11*
X162236100Y-79906220D03*
D19*
X159698900Y-77444020D03*
D17*
X162236100Y-82326220D03*
X159736100Y-69826220D03*
D11*
X162236100Y-72286220D03*
X162236100Y-77366220D03*
D16*
X157158900Y-76174020D03*
D17*
X159736100Y-79826220D03*
D12*
X150532000Y-86023000D03*
X152182000Y-86023000D03*
D20*
X170175000Y-98255000D03*
X170175000Y-90255000D03*
D21*
X159675000Y-91055000D03*
X159675000Y-92155000D03*
X159675000Y-93255000D03*
X159675000Y-94355000D03*
X159675000Y-95455000D03*
X159675000Y-96555000D03*
X159675000Y-97655000D03*
X159675000Y-98755000D03*
X159675000Y-99855000D03*
D22*
X160275000Y-101155000D03*
D23*
X169775000Y-101155000D03*
X169775000Y-85455000D03*
D24*
X160175000Y-86355000D03*
D10*
X123925000Y-60369000D03*
D11*
X123925000Y-62909000D03*
X123925000Y-65449000D03*
X123925000Y-67989000D03*
X123925000Y-70529000D03*
X123925000Y-73069000D03*
X123925000Y-75609000D03*
X123925000Y-78149000D03*
X123925000Y-80689000D03*
X123925000Y-83229000D03*
D25*
X142441500Y-98723000D03*
X144016500Y-98723000D03*
D26*
X148068000Y-67481000D03*
X146518000Y-67481000D03*
D27*
X99782000Y-58591000D03*
X101332000Y-58591000D03*
D28*
X141197000Y-94646000D03*
X141197000Y-96196000D03*
D10*
X100557000Y-69254000D03*
D11*
X100557000Y-66714000D03*
X100557000Y-64174000D03*
D12*
X155104000Y-97199000D03*
X156754000Y-97199000D03*
D29*
X95848500Y-99734000D03*
D30*
X93308500Y-99734000D03*
X95848500Y-97194000D03*
X93308500Y-97194000D03*
X95848500Y-94654000D03*
X93308500Y-94654000D03*
X95848500Y-92114000D03*
X93308500Y-92114000D03*
X95848500Y-89574000D03*
X93308500Y-89574000D03*
X95848500Y-87034000D03*
X93308500Y-87034000D03*
X95848500Y-84494000D03*
X93308500Y-84494000D03*
X95848500Y-81954000D03*
X93308500Y-81954000D03*
X95848500Y-79414000D03*
X93308500Y-79414000D03*
X95848500Y-76874000D03*
X93308500Y-76874000D03*
D31*
X156754000Y-95421000D03*
X155104000Y-95421000D03*
D10*
X144499000Y-85515000D03*
D11*
X147039000Y-85515000D03*
X144499000Y-88055000D03*
X147039000Y-88055000D03*
X144499000Y-90595000D03*
X147039000Y-90595000D03*
X144499000Y-93135000D03*
X147039000Y-93135000D03*
X144499000Y-95675000D03*
X147039000Y-95675000D03*
D28*
X100420500Y-87529000D03*
X100420500Y-89079000D03*
D12*
X145706000Y-98723000D03*
X147356000Y-98723000D03*
D27*
X131024000Y-101517000D03*
X132574000Y-101517000D03*
D25*
X142441500Y-100501000D03*
X144016500Y-100501000D03*
D27*
X146518000Y-78149000D03*
X148068000Y-78149000D03*
D32*
X150780500Y-88137000D03*
X150780500Y-88787000D03*
X150780500Y-89437000D03*
X150780500Y-90087000D03*
X150780500Y-90737000D03*
X150780500Y-91387000D03*
X150780500Y-92037000D03*
X156505500Y-92037000D03*
X156505500Y-91387000D03*
X156505500Y-90737000D03*
X156505500Y-90087000D03*
X156505500Y-89437000D03*
X156505500Y-88787000D03*
X156505500Y-88137000D03*
D33*
X150915000Y-67481000D03*
X152815000Y-67481000D03*
D34*
X151865000Y-101705000D03*
X151865000Y-99805000D03*
D28*
X100420500Y-95149000D03*
X100420500Y-96699000D03*
D12*
X145706000Y-100501000D03*
X147356000Y-100501000D03*
D33*
X146343000Y-63163000D03*
X148243000Y-63163000D03*
D35*
X126861000Y-89130000D03*
X126861000Y-89930000D03*
X126861000Y-90730000D03*
X126861000Y-91530000D03*
X126861000Y-92330000D03*
X126861000Y-93130000D03*
X126861000Y-93930000D03*
X126861000Y-94730000D03*
X126861000Y-95530000D03*
X126861000Y-96330000D03*
X126861000Y-97130000D03*
D36*
X128561000Y-98830000D03*
X129361000Y-98830000D03*
X130161000Y-98830000D03*
X130961000Y-98830000D03*
X131761000Y-98830000D03*
X132561000Y-98830000D03*
X133361000Y-98830000D03*
X134161000Y-98830000D03*
X134961000Y-98830000D03*
X135761000Y-98830000D03*
X136561000Y-98830000D03*
D35*
X138261000Y-97130000D03*
X138261000Y-96330000D03*
X138261000Y-95530000D03*
X138261000Y-94730000D03*
X138261000Y-93930000D03*
X138261000Y-93130000D03*
X138261000Y-92330000D03*
X138261000Y-91530000D03*
X138261000Y-90730000D03*
X138261000Y-89930000D03*
X138261000Y-89130000D03*
D36*
X136561000Y-87430000D03*
X135761000Y-87430000D03*
X134961000Y-87430000D03*
X134161000Y-87430000D03*
X133361000Y-87430000D03*
X132561000Y-87430000D03*
X131761000Y-87430000D03*
X130961000Y-87430000D03*
X130161000Y-87430000D03*
X129361000Y-87430000D03*
X128561000Y-87430000D03*
D37*
X104621000Y-60369000D03*
D38*
X104621000Y-62909000D03*
X104621000Y-65449000D03*
X104621000Y-67989000D03*
X104621000Y-70529000D03*
X104621000Y-73069000D03*
X104621000Y-75609000D03*
X104621000Y-78149000D03*
X104621000Y-80689000D03*
X104621000Y-83229000D03*
X104621000Y-85769000D03*
X104621000Y-88309000D03*
X104621000Y-90849000D03*
X104621000Y-93389000D03*
X104621000Y-95929000D03*
X104621000Y-98469000D03*
X104621000Y-101009000D03*
X104621000Y-103549000D03*
X104621000Y-106089000D03*
X104621000Y-108629000D03*
X119861000Y-108629000D03*
X119861000Y-106089000D03*
X119861000Y-103549000D03*
X119861000Y-101009000D03*
X119861000Y-98469000D03*
X119861000Y-95929000D03*
X119861000Y-93389000D03*
X119861000Y-90849000D03*
X119861000Y-88309000D03*
X119861000Y-85769000D03*
X119861000Y-83229000D03*
X119861000Y-80689000D03*
X119861000Y-78149000D03*
X119861000Y-75609000D03*
X119861000Y-73069000D03*
X119861000Y-70529000D03*
X119861000Y-67989000D03*
X119861000Y-65449000D03*
X119861000Y-62909000D03*
X119861000Y-60369000D03*
D26*
X135622000Y-84245000D03*
X134072000Y-84245000D03*
D39*
X100459500Y-91014000D03*
X100459500Y-93214000D03*
X102159500Y-93214000D03*
X102159500Y-91014000D03*
D27*
X156170000Y-86023000D03*
X157720000Y-86023000D03*
D40*
X146937000Y-70515000D03*
D41*
X153237000Y-72815000D03*
D40*
X146937000Y-72815000D03*
X146937000Y-75115000D03*
D42*
X93415000Y-59555000D03*
X151415000Y-59555000D03*
X151415000Y-108555000D03*
X93415000Y-108555000D03*
M02*
